<svg width="47" height="24" viewBox="0 0 47 24" fill="none" xmlns="http://www.w3.org/2000/svg">
<path d="M12.7464 14.2002L10.4062 16.1944L11.3514 16.7298C11.8917 17.0358 12.2143 17.634 12.1734 18.2538C12.1548 18.5357 12.0615 18.8028 11.9118 19.0326L12.7596 21.0868C12.9785 21.6173 13.4909 21.9377 14.0311 21.9377C14.2059 21.9376 14.3836 21.9041 14.5551 21.8333C15.2571 21.5436 15.5913 20.7397 15.3016 20.0378L13.0975 14.6973C13.0173 14.5029 12.8959 14.3348 12.7464 14.2002Z" fill="black"/>
<path d="M19.8223 19.4619V19.5145V22.1351C19.8223 22.3023 19.9578 22.4378 20.1251 22.4378H22.8857C23.053 22.4378 23.1885 22.3023 23.1885 22.1351V20.0377V19.9954H21.4545C20.8618 19.9954 20.2938 19.8076 19.8223 19.4619Z" fill="black"/>
<path d="M42.2188 19.995V20.0373V22.1347C42.2188 22.3019 42.3543 22.4375 42.5216 22.4375H45.2822C45.4494 22.4375 45.585 22.3019 45.585 22.1347V19.5141V19.4614C45.1134 19.8072 44.5454 19.995 43.9525 19.995L42.2188 19.995Z" fill="black"/>
<path d="M44.285 7.49943H45.8914C46.4399 7.49943 46.4399 5.50461 45.8914 5.50461H43.191L40.9441 1.40725C40.5578 0.702946 39.8239 0.259505 39.0208 0.245162L32.7031 0.132324L26.3854 0.245173C25.5822 0.259516 24.8484 0.702946 24.4622 1.40726L22.2152 5.50463H19.515C18.9664 5.50463 18.9664 7.49944 19.515 7.49944H21.1212L19.9798 9.58094C19.538 10.3866 19.3064 11.2906 19.3064 12.2095V17.2294C19.3064 17.8192 19.5489 18.3831 19.9771 18.7888C20.3761 19.1667 20.9048 19.3774 21.4544 19.3774H32.7031H43.9519C44.5015 19.3774 45.0302 19.1667 45.4292 18.7888C45.8573 18.3831 46.0999 17.8192 46.0999 17.2294V12.2095C46.0999 11.2906 45.8683 10.3866 45.4265 9.58094L44.285 7.49943ZM22.1308 7.79967L25.3649 1.90225C25.5735 1.52176 25.9701 1.28216 26.404 1.27443L32.7031 1.16201L39.0026 1.27443C39.4364 1.28216 39.8328 1.52166 40.0414 1.90214L43.2756 7.79967C43.4196 8.06237 43.2296 8.3834 42.93 8.3834H22.4765C22.1768 8.38341 21.9867 8.06237 22.1308 7.79967ZM26.151 12.1694C26.0385 12.4079 25.7947 12.5425 25.5466 12.5285L22.2999 12.3405C21.6059 12.3002 21.0761 11.7053 21.1163 11.0115C21.1564 10.3176 21.7515 9.78771 22.4452 9.82783C22.6097 9.83739 22.7688 9.8802 22.9093 9.94605L25.8508 11.3335C26.1645 11.4814 26.2991 11.8557 26.151 12.1694ZM36.5969 17.7796C36.5969 17.9001 36.4992 17.9977 36.3789 17.9977H29.0274C28.9071 17.9977 28.8095 17.9001 28.8095 17.7796V16.3652C28.8095 16.2448 28.9071 16.1472 29.0274 16.1472H36.3789C36.4992 16.1472 36.5969 16.2448 36.5969 16.3652V17.7796ZM43.5706 12.2223C43.4216 12.2926 43.2615 12.331 43.1064 12.3405L39.8597 12.5285C39.5135 12.5485 39.2165 12.2841 39.1964 11.9378C39.1811 11.6745 39.3309 11.4396 39.5555 11.3335L42.497 9.94606C43.1255 9.64958 43.8753 9.91872 44.1719 10.5474C44.4683 11.1759 44.1991 11.9258 43.5706 12.2223Z" fill="black"/>
<path d="M13.7288 4.2623C12.3836 4.01992 11.0965 4.91401 10.8541 6.25916C10.6117 7.60454 11.5058 8.89144 12.851 9.13382C14.1963 9.37625 15.4831 8.48232 15.7255 7.13694C15.9679 5.79178 15.0741 4.50472 13.7288 4.2623Z" fill="black"/>
<path d="M18.0436 14.1575L18.0783 14.159C18.2212 14.1649 18.3418 14.0538 18.3477 13.9109L18.5116 9.93119C18.5174 9.7883 18.4064 9.66769 18.2635 9.66181L18.2288 9.66038C18.0859 9.65449 17.9653 9.76556 17.9594 9.90845L17.9169 10.9418L17.4626 11.1106L17.4476 11.4749L16.9279 11.4535L16.8945 12.2635L17.4142 12.2849L17.3992 12.6492L17.8381 12.8548L17.7955 13.8882C17.7897 14.0311 17.9007 14.1517 18.0436 14.1575Z" fill="black"/>
<path d="M17.6741 8.9954C17.509 9.09755 17.4 9.26899 17.3499 9.50498C17.3383 9.55992 17.3733 9.6139 17.4282 9.62556C17.4832 9.63719 17.5371 9.60199 17.5488 9.54719C17.5866 9.36836 17.6644 9.24119 17.7796 9.16921C17.9595 9.05672 18.1801 9.10993 18.1823 9.11048C18.2329 9.12311 18.2843 9.09545 18.3023 9.04773C18.3036 9.04423 18.3047 9.04063 18.3056 9.03691C18.3194 8.98263 18.2869 8.9275 18.2327 8.9135C18.2205 8.91036 17.9289 8.83759 17.6741 8.9954Z" fill="black"/>
<path d="M18.1665 8.42891C18.1486 8.42531 17.7264 8.34368 17.3672 8.58967C17.1311 8.75128 16.9806 9.0128 16.9195 9.36696C16.9099 9.4223 16.9471 9.47488 17.0024 9.48441C17.0577 9.49391 17.1101 9.45685 17.1199 9.40149C17.1709 9.10425 17.2923 8.88808 17.4804 8.75856C17.7675 8.56076 18.1229 8.62757 18.1265 8.62828C18.1759 8.63797 18.2241 8.61008 18.2413 8.56436C18.2432 8.55926 18.2448 8.55391 18.2459 8.5484C18.2568 8.49343 18.2214 8.44 18.1665 8.42891Z" fill="black"/>
<path d="M14.6476 23.6804C16.8091 23.6913 17.7407 23.5252 17.9717 23.0861C18.1733 22.7025 17.8373 22.2196 17.3723 21.5511C16.7199 20.6135 15.8394 19.3467 15.9398 17.6729L16.1113 17.6799L16.1481 16.7843L16.3326 16.7919L16.3687 15.9176C16.6987 15.8239 16.9573 15.5407 17.0021 15.1788C17.0531 14.7667 16.81 14.3868 16.4374 14.2474L16.4952 12.8434C16.6057 12.8026 16.6866 12.6987 16.6917 12.5737L16.7512 11.1283C16.758 10.9624 16.6291 10.8223 16.4632 10.8155L15.7439 10.7859C15.578 10.7791 15.4379 10.908 15.4311 11.074L15.4016 11.7906L15.2779 11.88C15.4488 12.1293 15.516 12.4402 15.4569 12.7408C15.4822 12.7668 15.5118 12.7887 15.5452 12.8042L15.4917 14.1051L13.1927 13.8204L12.9407 14.0351C13.1062 14.1906 13.2409 14.3816 13.3315 14.6011L13.7708 15.6654L15.419 15.8695L15.3826 16.7528L15.5671 16.7604L15.5303 17.656L15.6869 17.6625C15.5819 19.4194 16.491 20.7274 17.1646 21.6957C17.5631 22.2684 17.8779 22.7208 17.7477 22.9683C17.5753 23.2961 16.6202 23.4402 14.6489 23.4273C13.7832 23.4246 12.3771 23.4722 11.0177 23.52C9.4042 23.5767 7.46944 23.6445 6.6757 23.6037C6.75497 23.5839 6.85273 23.5614 6.97336 23.5358C7.55429 23.4128 7.74873 23.3064 7.71629 23.1295C7.69158 22.9951 7.64571 22.7453 4.09071 22.6443C2.34587 22.5946 0.4342 22.6102 0 22.6779L0.0388848 22.928C0.966784 22.7837 6.50747 22.8784 7.38456 23.1629C7.30626 23.1933 7.16693 23.2362 6.92094 23.2883C6.21464 23.4378 6.10131 23.5119 6.11936 23.6589C6.13645 23.7987 6.29446 23.8679 7.36073 23.8679C8.08442 23.8679 9.22653 23.836 11.0266 23.7727C12.3834 23.7251 13.7852 23.6757 14.6476 23.6804Z" fill="black"/>
<path d="M4.95727 16.5594L7.38972 17.9372L4.16827 19.2361C3.46391 19.52 3.12316 20.3212 3.40719 21.0255C3.62322 21.5613 4.13851 21.8867 4.68282 21.8867C4.85395 21.8867 5.02808 21.8545 5.19651 21.7866L11.0627 19.4214C11.5523 19.224 11.8857 18.7637 11.9205 18.2369C11.9553 17.7101 11.6856 17.2099 11.2263 16.9498L10.2009 16.3689L10.0663 16.4836C9.8616 16.6581 9.60056 16.7542 9.33137 16.7542C9.17056 16.7542 9.01459 16.7208 8.86775 16.655C8.47083 16.4769 8.20829 16.0808 8.19873 15.6459L8.18969 15.2297L7.12611 14.6273C7.18016 14.561 7.23449 14.4949 7.29031 14.4295L8.18329 14.9353L8.16262 13.9844L7.67228 14.003C7.7552 13.9144 7.83911 13.8268 7.92402 13.7403C7.99959 13.6633 8.07569 13.5873 8.15235 13.5121L8.08368 10.3538C8.07015 9.72923 8.5673 9.21005 9.19184 9.19647L9.22181 9.19604C9.83014 9.19604 10.3359 9.69335 10.3492 10.3046L10.4124 13.2115L11.7669 12.0573L11.4141 9.53514C11.3983 9.42242 11.3612 9.31813 11.3084 9.22467C11.2652 9.09702 11.2024 8.97656 11.1167 8.86722C10.5198 8.10539 9.13249 7.67123 7.70575 8.60149C5.75153 9.89215 4.73696 10.9327 3.45969 13.0353C2.80652 14.3216 3.21658 15.1477 3.81765 15.7387C3.96833 15.8869 4.13084 16.0206 4.29184 16.1427C4.54241 16.3329 4.75579 16.4823 4.95727 16.5594Z" fill="black"/>
<path d="M13.617 13.1252L13.92 13.2921C14.3455 13.5265 14.8808 13.3716 15.1154 12.9458C15.3498 12.52 15.1948 11.9849 14.7691 11.7504L13.9334 11.2902C13.6127 11.1137 13.2165 11.1541 12.9382 11.3913L10.1705 13.7498L10.0957 10.3102C10.0852 9.82429 9.68139 9.43607 9.19681 9.44956C8.71094 9.46014 8.32562 9.8626 8.33615 10.3485L8.4512 15.6405C8.45861 15.9802 8.66088 16.2853 8.97079 16.4243C9.08627 16.4761 9.20894 16.5014 9.33086 16.5014C9.53625 16.5014 9.73949 16.4295 9.9017 16.2912L13.617 13.1252Z" fill="black"/>
</svg>
