<svg width="41" height="42" viewBox="0 0 41 42" fill="none" xmlns="http://www.w3.org/2000/svg">
<path d="M17.0223 29.6808C16.4503 29.6808 15.9023 29.4996 15.4473 29.166V29.2168V31.7455C15.4473 31.9068 15.5781 32.0376 15.7394 32.0376H18.4033C18.5646 32.0376 18.6954 31.9068 18.6954 31.7455V29.7216V29.6808L17.0223 29.6808Z" fill="black"/>
<path d="M40.3067 31.7456V29.2168V29.166C39.8517 29.4996 39.3036 29.6809 38.7316 29.6809H37.0586V29.7217V31.7456C37.0586 31.9069 37.1894 32.0377 37.3507 32.0377H40.0146C40.176 32.0377 40.3067 31.9069 40.3067 31.7456Z" fill="black"/>
<path d="M38.731 29.0844C39.2614 29.0844 39.7715 28.8812 40.1565 28.5165C40.5696 28.125 40.8037 27.5809 40.8037 27.0118V22.1679C40.8037 21.2812 40.5802 20.4089 40.1539 19.6315L39.0524 17.623H40.6025C41.1318 17.623 41.1318 15.6981 40.6025 15.6981H37.9969L35.8287 11.7444C35.456 11.0648 34.7478 10.6369 33.9729 10.623L27.8766 10.5142L21.7804 10.6231C21.0055 10.6369 20.2973 11.0648 19.9246 11.7444L17.7565 15.6981H15.1509C14.82 15.6981 14.696 16.4501 14.7787 17.014L15.9752 17.623H16.7009L16.5425 17.9117L17.1181 18.2046L17.0492 18.3401L17.2266 18.4306L17.1753 18.5314L17.3225 18.6066L17.4705 18.3152C17.5098 18.2378 17.5643 18.172 17.629 18.1198C17.6245 18.0514 17.638 17.9801 17.675 17.9127L20.7957 12.2221C20.997 11.8549 21.3796 11.6237 21.7984 11.6162L27.8766 11.5078L33.9552 11.6162C34.3738 11.6237 34.7563 11.8548 34.9576 12.2219L38.0784 17.9127C38.2174 18.1662 38.034 18.476 37.7449 18.476H18.5909C18.6146 18.6012 18.5992 18.7348 18.5371 18.857L18.0203 19.8743C18.164 19.8878 18.3026 19.926 18.4262 19.9839L21.2646 21.3226C21.5673 21.4653 21.6971 21.8265 21.5543 22.1292C21.4456 22.3594 21.2105 22.4893 20.971 22.4757L17.8381 22.2943C17.1686 22.2555 16.6573 21.6814 16.6961 21.0119C16.7004 20.9376 16.7123 20.8657 16.7291 20.7959C16.5211 20.6212 16.4521 20.3199 16.5803 20.0675L16.7308 19.7713L16.5823 19.6955L16.5311 19.7959L16.3539 19.7056L16.285 19.8408L16.035 19.7135L15.9317 19.9163L15.5526 19.7236C15.1581 20.4778 14.9496 21.3157 14.9496 22.1679V27.0118C14.9496 27.5809 15.1837 28.125 15.5969 28.5165C15.9818 28.8812 16.492 29.0844 17.0223 29.0844H27.8766L38.731 29.0844ZM34.4887 21.3226L37.3271 19.9839C37.9336 19.6978 38.6571 19.9575 38.9433 20.5641C39.2293 21.1706 38.9695 21.8942 38.363 22.1803C38.2192 22.2481 38.0648 22.2852 37.9152 22.2943L34.7823 22.4757C34.4482 22.495 34.1616 22.2399 34.1422 21.9058C34.1275 21.6517 34.272 21.4251 34.4887 21.3226ZM24.1195 27.5428V26.1779C24.1195 26.0617 24.2137 25.9675 24.3299 25.9675H31.4235C31.5397 25.9675 31.6339 26.0617 31.6339 26.1779V27.5428C31.6339 27.659 31.5397 27.7531 31.4235 27.7531H24.3299C24.2137 27.7531 24.1195 27.6589 24.1195 27.5428Z" fill="black"/>
<path d="M26.3125 11.958H29.4403V12.7455H26.3125V11.958Z" fill="black"/>
<path d="M3.12185 26.5102L0.270403 30.2634C-0.172934 30.8468 -0.0592231 31.6792 0.524253 32.1225C0.764114 32.3047 1.04616 32.3928 1.32582 32.3928C1.72644 32.3928 2.1223 32.2122 2.38331 31.8687L5.52508 27.7334C5.7127 27.4865 5.80786 27.1817 5.79407 26.8719L5.73177 25.4688L2.94397 22.5034L3.12185 26.5102Z" fill="black"/>
<path d="M5.2619 15.0207C5.32441 14.7355 5.4943 14.4916 5.74027 14.3341C5.91658 14.2211 6.12016 14.1613 6.32903 14.1613C6.70395 14.1613 7.04839 14.3497 7.25042 14.6652L7.80671 15.5337C8.0765 14.6807 7.9105 13.7263 7.23885 13.3604C6.41873 12.9138 5.02364 13.0594 4.11532 14.4291C2.87737 16.3196 2.3763 17.6295 2.04854 19.9807C1.99029 20.9114 2.27607 21.4767 2.69908 21.837C2.748 21.9199 2.80594 21.9992 2.87467 22.0723L6.63993 26.0775L7.69752 31.3319C7.82429 31.9619 8.37792 32.3972 8.99673 32.3972C9.0836 32.3972 9.1716 32.3886 9.26002 32.3708C9.97835 32.2262 10.4434 31.5267 10.2988 30.8083L9.16662 25.1828C9.1178 24.9402 9.00212 24.7161 8.83264 24.5358L5.65853 21.1594C5.80101 20.0495 6.2393 18.9035 6.70691 17.8704L5.40929 15.8444C5.25174 15.5986 5.1994 15.306 5.2619 15.0207Z" fill="black"/>
<path d="M9.4733 14.3027C10.7499 14.6346 12.0537 13.8689 12.3857 12.5924C12.7177 11.3158 11.952 10.012 10.6754 9.67998C9.39893 9.34806 8.09497 10.1137 7.76299 11.3903C7.43104 12.6668 8.19684 13.9707 9.4733 14.3027Z" fill="black"/>
<path d="M12.8342 20.1085L12.5219 19.9863L11.9252 20.0235C11.9111 20.091 11.9425 20.1622 12.0069 20.1951L12.8727 20.6365C12.9499 20.6759 13.0443 20.6453 13.0837 20.5682L13.1682 20.4027C13.1822 20.3751 13.1879 20.3441 13.1843 20.3133L13.1691 20.181C13.0547 20.1744 12.9422 20.1508 12.8342 20.1085Z" fill="black"/>
<path d="M13.138 17.8802L13.63 18.0728C13.9298 18.1901 14.1477 18.4265 14.2532 18.7064L15.792 19.4886L15.8953 19.2858L16.1453 19.4129L16.2142 19.2778L16.3916 19.3681L16.4429 19.2673L16.8114 19.4554L16.9206 19.2415L17.2664 19.4195L16.8639 20.2119C16.7939 20.3497 16.8488 20.5181 16.9865 20.588C17.1243 20.658 17.2927 20.6031 17.3627 20.4653L18.2528 18.7131C18.3228 18.5753 18.2679 18.4069 18.1301 18.3369C17.9924 18.267 17.8241 18.322 17.7541 18.4597L17.3484 19.2582L17.0026 19.0802L17.1154 18.8589L16.7468 18.6707L16.7981 18.57L16.6207 18.4795L16.6895 18.3443L13.795 16.8712C13.4998 16.7208 13.1384 16.8381 12.9884 17.1334C12.7619 17.5793 13.0558 17.8232 13.138 17.8802ZM13.4926 17.1207L14.5727 17.6707L14.5153 17.7835L13.435 17.2335L13.4926 17.1207ZM13.3447 17.4108L14.4251 17.9609L14.3675 18.0738L13.2874 17.5237L13.3447 17.4108Z" fill="black"/>
<path d="M13.5425 18.3001L13.005 18.0897C12.8898 18.0446 12.7659 18.0252 12.6427 18.033L9.25269 18.2444L7.04474 14.7971C6.79182 14.4022 6.26659 14.2869 5.87178 14.54C5.47685 14.7929 5.36169 15.3181 5.61471 15.713L8.09196 19.5809C8.24858 19.8256 8.51871 19.9721 8.80687 19.9721C8.82438 19.9721 8.84211 19.9716 8.85984 19.9704L12.561 19.7396L12.9237 19.8815C13.3604 20.0525 13.853 19.837 14.0239 19.4003C14.1947 18.9635 13.9793 18.471 13.5425 18.3001Z" fill="black"/>
<path d="M18.1565 20.4536C18.1528 20.4536 18.1491 20.4539 18.1456 20.4543C18.0967 20.4604 18.0592 20.5024 18.0596 20.5528C18.0596 20.5549 18.0598 20.7739 17.9137 20.9173C17.8202 21.0092 17.6833 21.0534 17.507 21.0486C17.453 21.0472 17.4078 21.0899 17.4063 21.144C17.4048 21.1982 17.4476 21.2432 17.5017 21.2447C17.7344 21.251 17.9199 21.1874 18.0529 21.0555C18.2585 20.852 18.256 20.5621 18.2558 20.5498C18.2549 20.4958 18.2105 20.4529 18.1565 20.4536Z" fill="black"/>
<path d="M17.5459 21.4847C17.4917 21.4814 17.4452 21.5222 17.4416 21.5762C17.4381 21.6303 17.479 21.6769 17.5331 21.6805C17.8792 21.703 18.1585 21.6208 18.3633 21.4358C18.6752 21.1542 18.6938 20.7397 18.6945 20.7221C18.6964 20.6681 18.6543 20.6228 18.6003 20.6207C18.5948 20.6205 18.5895 20.6207 18.5843 20.6214C18.5375 20.6272 18.5004 20.6661 18.4984 20.7147C18.4982 20.7182 18.4808 21.0667 18.2304 21.2914C18.0665 21.4387 17.8363 21.5038 17.5459 21.4847Z" fill="black"/>
<path d="M11.6669 28.4652C11.5122 28.4652 11.3867 28.5907 11.3867 28.7454V31.866C11.3867 32.0207 11.5122 32.1461 11.6669 32.1461H13.3911C13.5458 32.1461 13.6712 32.0207 13.6712 31.866V28.7454C13.6712 28.5907 13.5458 28.4652 13.3911 28.4652H12.8871V28.2929H13.0198V27.6823C13.0198 27.614 12.9644 27.5586 12.896 27.5586H12.1619C12.0936 27.5586 12.0382 27.614 12.0382 27.6823V28.2929H12.1709V28.4652H11.6669ZM13.3528 31.8277H11.7051V29.1605H13.1536V29.0086H11.7051V28.7836H13.3528V31.8277Z" fill="black"/>
</svg>
