<svg width="48" height="26" viewBox="0 0 48 26" fill="none" xmlns="http://www.w3.org/2000/svg">
<path d="M19.3901 11.2944L19.3789 11.448L20.4598 11.5261C20.4693 11.4752 20.4817 11.4249 20.4925 11.3742L19.3901 11.2944Z" fill="black"/>
<path d="M19.3459 11.5771L19.2793 11.7159L20.3703 12.2389C20.374 12.1844 20.3806 12.1301 20.3858 12.0757L19.3459 11.5771Z" fill="black"/>
<path d="M23.1646 20.435C22.5721 20.435 22.0045 20.2473 21.5332 19.9019V19.9545V22.5736C21.5332 22.7407 21.6687 22.8762 21.8358 22.8762H24.595C24.7621 22.8762 24.8976 22.7407 24.8976 22.5736V20.4773V20.435L23.1646 20.435Z" fill="black"/>
<path d="M45.6469 20.4351H43.9141V20.4774V22.5737C43.9141 22.7408 44.0495 22.8763 44.2166 22.8763H46.9759C47.143 22.8763 47.2784 22.7408 47.2784 22.5737V19.9545V19.9019C46.8071 20.2474 46.2394 20.4351 45.6469 20.4351Z" fill="black"/>
<path d="M21.0191 17.6709C21.0191 18.2604 21.2616 18.824 21.6895 19.2294C22.0883 19.6072 22.6167 19.8177 23.166 19.8177H34.4087H45.6514C46.2007 19.8177 46.7291 19.6072 47.1279 19.2294C47.5558 18.824 47.7983 18.2604 47.7983 17.6709V12.6537C47.7983 11.7353 47.5668 10.8318 47.1252 10.0266L45.9844 7.94616H47.5899C48.1381 7.94616 48.1381 5.95242 47.5899 5.95242H44.891L42.6452 1.85725C42.2592 1.15332 41.5257 0.710121 40.7231 0.695785L34.4087 0.583008L28.0943 0.695796C27.2916 0.710132 26.5582 1.15332 26.1722 1.85726L23.9264 5.95243H21.2276C20.6793 5.95243 20.6793 7.94617 21.2276 7.94617H22.833L21.6922 10.0266C21.2506 10.8318 21.0191 11.7353 21.0191 12.6537L21.0191 17.6709ZM38.3003 18.2209C38.3003 18.3412 38.2028 18.4388 38.0825 18.4388H30.735C30.6147 18.4388 30.5172 18.3412 30.5172 18.2209V16.8072C30.5172 16.6869 30.6147 16.5893 30.735 16.5893H38.0825C38.2028 16.5893 38.3003 16.6869 38.3003 16.8072V18.2209ZM45.8713 10.9925C46.1676 11.6207 45.8985 12.3702 45.2702 12.6666C45.1213 12.7368 44.9614 12.7752 44.8064 12.7846L41.5614 12.9725C41.2154 12.9925 40.9185 12.7283 40.8984 12.3822C40.8832 12.119 41.0329 11.8843 41.2573 11.7782L44.1973 10.3915C44.8255 10.0952 45.5749 10.3642 45.8713 10.9925ZM23.842 8.24628L27.0744 2.35202C27.283 1.9717 27.6793 1.73224 28.1129 1.7245L34.4087 1.61216L40.7047 1.72451C41.1383 1.73225 41.5346 1.97164 41.743 2.35187L44.9755 8.24628C45.1195 8.50883 44.9295 8.82967 44.6301 8.82967H24.1875C23.888 8.82967 23.698 8.50883 23.842 8.24628ZM22.8281 11.4563C22.8681 10.7628 23.463 10.2333 24.1563 10.2733C24.3207 10.2829 24.4797 10.3257 24.6201 10.3915L27.5601 11.7782C27.8736 11.926 28.0081 12.3001 27.8601 12.6136C27.7476 12.852 27.504 12.9866 27.256 12.9725L24.011 12.7846C23.3175 12.7444 22.7879 12.1498 22.8281 11.4563Z" fill="black"/>
<path d="M32.7871 2.07861H36.0268V2.89426H32.7871V2.07861Z" fill="black"/>
<path d="M4.75292 20.1402C3.99594 20.1953 3.42702 20.8537 3.48221 21.6107C3.53488 22.3337 4.13778 22.8852 4.85137 22.8851C4.88492 22.8851 4.91874 22.8839 4.95272 22.8814L11.7415 22.3867C12.3385 22.3432 12.8386 21.9183 12.978 21.3362C13.1175 20.7542 12.8642 20.1488 12.3517 19.8395L8.07116 17.2559L8.30317 17.1006L9.75914 17.9794L11.729 17.3849L11.9035 19.2736L12.4824 19.623C13.0918 19.9908 13.3898 20.7029 13.224 21.3952C13.1079 21.8797 12.7844 22.2692 12.3575 22.4775C12.6047 22.8584 13.0329 23.105 13.509 23.105C13.5514 23.105 13.594 23.103 13.637 23.0991C14.3928 23.0293 14.9489 22.36 14.879 21.6042L14.311 15.4568C14.2857 15.1828 14.1777 14.9272 14.0081 14.7182L12.1455 15.7789C11.975 15.876 11.7813 15.9273 11.5853 15.9273C11.3123 15.9273 11.0486 15.8288 10.8426 15.6499L10.1004 15.0055L8.31733 15.5435C8.34047 15.4479 8.36495 15.3526 8.38992 15.2575C8.51366 14.7862 8.65768 14.3237 8.80598 13.8816L7.12077 12.4184C6.64933 12.009 6.59877 11.2924 7.00814 10.8209C7.2233 10.573 7.53498 10.4309 7.8634 10.4309C8.136 10.4309 8.39958 10.5294 8.60561 10.7083L9.59658 11.5687C9.76546 10.6683 9.48358 9.72196 8.75828 9.42516C7.86312 9.05862 6.44347 9.36756 5.66426 10.8811C4.60515 12.9684 4.23849 14.3739 4.16881 16.8318C4.22658 18.0416 4.77555 18.5981 5.43238 18.8735L5.54919 18.944L7.23168 19.9595L4.75292 20.1402Z" fill="black"/>
<path d="M15.8492 11.3778L16.3454 11.4746C16.5893 11.5222 16.8051 11.6465 16.9683 11.8281C17.1541 11.8535 17.3418 11.7945 17.4787 11.6656L17.518 11.6287L18.2478 11.7492L18.2663 11.6372L18.5487 11.6838L18.5705 11.5516L19.0277 11.6271L19.0833 11.291L18.6261 11.2154L18.6479 11.0832L18.3655 11.0365L18.3841 10.9245L17.3712 10.7572L17.9183 10.015C18.0431 9.84573 18.1237 9.65775 18.1564 9.46015L18.3778 8.1201L18.4302 8.12877C18.4852 8.13785 18.5376 8.10031 18.5467 8.04535C18.5558 7.99039 18.5182 7.93798 18.4632 7.9289L16.4399 7.59462C16.3849 7.58554 16.3325 7.62308 16.3234 7.67804C16.3144 7.733 16.3519 7.78541 16.4069 7.79449L16.4593 7.80316L16.459 7.80534L17.3792 7.95397L17.3546 8.10631L16.4338 7.9576L16.238 9.14321C16.2053 9.34082 16.2212 9.54475 16.2849 9.7451L16.5642 10.6238L15.1031 10.3825L14.9668 11.2072L15.7239 11.3323L15.7192 11.361C15.7628 11.3644 15.8063 11.3694 15.8492 11.3778ZM17.5244 7.97737L17.767 8.01656L17.7423 8.1689L17.4998 8.12972L17.5244 7.97737Z" fill="black"/>
<path d="M16.1288 13.7185C16.0565 13.7185 15.9835 13.7114 15.912 13.6975L15.8806 13.6914L15.764 14.3971L15.8703 14.4147C15.6383 16.2353 15.6273 19.7896 16.5655 22.0805C16.7517 22.5354 16.7455 22.8963 16.5466 23.1836C15.8562 24.1804 12.9077 24.1791 9.94692 24.0917C7.78655 24.0286 7.5861 24.3571 7.51996 24.465C7.50289 24.4929 7.49119 24.5223 7.48486 24.5525C7.4052 24.5553 7.32382 24.5583 7.24028 24.5616C3.97246 24.6897 2.9349 23.8824 2.10143 23.2339C1.53101 22.7901 1.03832 22.4069 0 22.5281L0.0255501 22.7465C0.974434 22.6359 1.39046 22.9594 1.96647 23.4076C2.78264 24.0425 3.8989 24.9134 7.24887 24.7813C7.34464 24.7775 7.43794 24.7742 7.52845 24.7711C7.73824 25.1173 8.61443 25.4061 9.21556 25.4164C9.22995 25.4166 9.24455 25.4167 9.25947 25.4167C9.82238 25.4167 10.7472 25.2411 10.8911 24.9913C10.9249 24.9323 10.9248 24.8662 10.8908 24.8098C10.8307 24.7106 10.6779 24.4554 7.73921 24.5442C7.85322 24.4463 8.28945 24.2625 9.94049 24.3116C13.0868 24.4039 15.9737 24.3968 16.7273 23.3088C16.9686 22.9604 16.9827 22.5191 16.769 21.9972C15.848 19.7484 15.8592 16.2497 16.0874 14.4506L16.1943 14.4682L16.3209 13.7017C16.2583 13.7125 16.1942 13.7184 16.129 13.7184L16.1288 13.7185ZM10.6762 24.9061C10.5285 25.0195 9.83965 25.2062 9.21941 25.1965C8.68967 25.1874 8.07051 24.9681 7.81456 24.7621C10.0632 24.699 10.5665 24.8477 10.6762 24.9061Z" fill="black"/>
<path d="M16.2951 11.7226L15.7989 11.6258C15.5925 11.5855 15.3781 11.6206 15.1952 11.7248L11.6881 13.7222L8.43666 10.899C8.06991 10.5807 7.5144 10.6196 7.19586 10.9865C6.87742 11.3533 6.91661 11.9088 7.28336 12.2272L11.0052 15.4589C11.1691 15.6012 11.3748 15.6743 11.5821 15.6743C11.7313 15.6743 11.8813 15.6364 12.0171 15.559L15.7822 13.4148L15.9582 13.4491C16.4351 13.5416 16.8969 13.2311 16.9899 12.7543C17.083 12.2776 16.7719 11.8157 16.2951 11.7226Z" fill="black"/>
<path d="M10.704 8.58228C10.6562 8.67846 10.6501 8.78752 10.6812 8.89393L8.49248 8.18345C8.71322 8.66972 9.0917 9.08867 9.6022 9.3542C10.2491 9.69067 10.9759 9.71313 11.6091 9.47686L11.785 9.54585C11.8085 9.55432 11.8313 9.56346 11.8535 9.57237C11.9307 9.60318 12.0173 9.63765 12.1139 9.63765C12.2124 9.63765 12.3213 9.60169 12.441 9.48905L13.2656 8.60513L13.2864 8.57507C13.3885 8.36905 13.3027 8.10869 13.0869 7.96933L13.0821 7.96623C13.477 6.82608 12.9877 5.53864 11.8852 4.96515C10.8633 4.43361 9.64123 4.68549 8.90511 5.50402L11.5961 7.18663C11.5837 7.18908 11.5712 7.1913 11.559 7.1947C11.4457 7.22588 11.3558 7.2955 11.2992 7.38985L8.70104 5.76531C8.64629 5.84572 8.59518 5.92972 8.54918 6.01817C8.25349 6.58662 8.20022 7.21692 8.35196 7.79108L10.7158 8.5584L10.704 8.58228ZM11.6261 7.43842C11.6481 7.43241 11.6713 7.42941 11.6948 7.42941C11.752 7.42941 11.8116 7.44702 11.8633 7.4803L12.9497 8.18171C13.0518 8.24763 13.0996 8.3595 13.0662 8.44829L13.0648 8.44973L12.2944 7.96054L12.2238 8.07199L12.9733 8.54791L12.262 9.31064C12.148 9.4179 12.089 9.39406 11.9471 9.33748C11.9224 9.32761 11.8972 9.31761 11.8742 9.30934L11.1059 9.00809C11.0243 8.97856 10.9582 8.91747 10.929 8.84468C10.9079 8.79228 10.9085 8.73904 10.9305 8.69459L11.5077 7.53044C11.5297 7.48608 11.5717 7.45345 11.6261 7.43842Z" fill="black"/>
<path d="M12.0428 7.95897L12.0781 7.90322L12.1135 7.84753L11.8538 7.68262L11.8185 7.73835L11.7832 7.79406L12.0428 7.95897Z" fill="black"/>
</svg>
