<svg width="40" height="40" viewBox="0 0 40 40" fill="none" xmlns="http://www.w3.org/2000/svg">
<path fill-rule="evenodd" clip-rule="evenodd" d="M6.1786 18.6286C5.51301 18.7202 5 19.2992 5 19.9998C5 20.7641 5.61052 21.3837 6.36364 21.3837H30.3332L21.6745 30.1356L21.5421 30.2905C21.1449 30.8314 21.1874 31.6003 21.6705 32.0926C22.2019 32.6342 23.0653 32.636 23.599 32.0967L34.5795 20.9993C34.6449 20.9358 34.7041 20.8656 34.756 20.79C35.1277 20.2496 35.0754 19.4999 34.5989 19.0184L23.5989 7.90322L23.4457 7.76956C22.911 7.36876 22.1535 7.41508 21.6704 7.90744C21.139 8.44903 21.1409 9.32524 21.6746 9.86451L30.3354 18.6159H6.36364L6.1786 18.6286Z" fill="#070707"/>
</svg>
