<svg width="20" height="38" viewBox="0 0 20 38" fill="transparent" xmlns="http://www.w3.org/2000/svg">
<path d="M18.5916 10.3036C18.5916 5.71764 14.8774 2 10.2958 2C5.71415 2 2 5.71764 2 10.3036V19.4107C2 23.9966 5.71415 27.7143 10.2958 27.7143C14.8774 27.7143 18.5916 23.9966 18.5916 19.4107V10.3036Z" stroke="#fff" stroke-width="2.67857"/>
<path d="M11.3674 7.35756C11.3674 6.76583 10.8882 6.28613 10.297 6.28613C9.70581 6.28613 9.22656 6.76583 9.22656 7.35756V10.5718C9.22656 11.1636 9.70581 11.6433 10.297 11.6433C10.8882 11.6433 11.3674 11.1636 11.3674 10.5718V7.35756Z" fill="#fff"/>
<path d="M13.4991 34.5404C13.9171 34.122 13.9171 33.4436 13.4991 33.0252C13.0811 32.6068 12.4033 32.6068 11.9853 33.0252L9.71457 35.298C9.29654 35.7165 9.29654 36.3948 9.71457 36.8133C10.1326 37.2317 10.8104 37.2317 11.2284 36.8133L13.4991 34.5404Z" fill="#fff"/>
<path d="M7.3095 34.5404C6.89147 34.122 6.89147 33.4436 7.3095 33.0252C7.72753 32.6068 8.40528 32.6068 8.82331 33.0252L11.094 35.298C11.5121 35.7165 11.5121 36.3948 11.094 36.8133C10.676 37.2317 9.99824 37.2317 9.58022 36.8133L7.3095 34.5404Z" fill="#fff"/>
</svg>
