<svg width="40" height="40" viewBox="0 0 40 40" fill="none" xmlns="http://www.w3.org/2000/svg">
<path fill-rule="evenodd" clip-rule="evenodd" d="M33.8214 21.3714C34.487 21.2798 35 20.7008 35 20.0002C35 19.2359 34.3895 18.6163 33.6364 18.6163H9.66678L18.3255 9.86443L18.4579 9.7095C18.8551 9.16857 18.8126 8.39967 18.3295 7.90735C17.7981 7.3658 16.9347 7.36399 16.401 7.9033L5.42051 19.0007C5.35512 19.0642 5.29595 19.1344 5.24403 19.21C4.87227 19.7504 4.92464 20.5001 5.40112 20.9816L16.4011 32.0968L16.5543 32.2304C17.089 32.6312 17.8465 32.5849 18.3296 32.0926C18.861 31.551 18.8591 30.6748 18.3254 30.1355L9.66462 21.3841H33.6364L33.8214 21.3714Z" fill="#070707"/>
</svg>
